<svg width="104" height="70" viewBox="0 0 104 70" fill="none" xmlns="http://www.w3.org/2000/svg">
<path d="M70 29.0001H104V35.0001C104 38.3138 101.314 41.0001 98 41.0001H70V29.0001Z" fill="#0262A2"/>
<path fill-rule="evenodd" clip-rule="evenodd" d="M0 35.0001C0 41.9224 2.05271 48.6893 5.89856 54.445C9.74441 60.2007 15.2107 64.6868 21.6061 67.3358C28.0015 69.9849 35.0388 70.678 41.8282 69.3275C45.4114 68.6148 48.8407 67.3497 52 65.5942V45.4405C51.1867 46.7648 50.2172 47.9964 49.1068 49.1068C46.3167 51.8969 42.762 53.797 38.8921 54.5667C35.0221 55.3365 31.0109 54.9414 27.3655 53.4315C23.7201 51.9215 20.6043 49.3644 18.4122 46.0837C16.22 42.8029 15.05 38.9458 15.05 35.0001L0 35.0001ZM52 24.5596V4.40592C46.8137 1.52403 40.9645 6.10352e-05 35 6.10352e-05L35 15.0501C38.9457 15.0501 42.8029 16.2201 46.0836 18.4122C48.4862 20.0176 50.5007 22.1183 52 24.5596Z" fill="#222222"/>
<path fill-rule="evenodd" clip-rule="evenodd" d="M72.4306 0.168589C80.4891 0.962275 88.023 4.52556 93.7488 10.2513L83.116 20.8841C79.8502 17.6183 75.553 15.586 70.9567 15.1333C66.3605 14.6806 61.7494 15.8356 57.9092 18.4015C56.8611 19.1018 55.8881 19.8955 55 20.7692V2.92197C60.4485 0.544111 66.4467 -0.420776 72.4306 0.168589ZM55 67.0781C61.5297 69.9281 68.7973 70.7261 75.8282 69.3275C83.77 67.7478 90.9184 63.4632 96.0554 57.2038C101.192 50.9444 104 43.0975 104 35.0001H88.963C88.963 39.6186 87.3615 44.0942 84.4316 47.6644C81.5016 51.2346 77.4244 53.6784 72.8946 54.5794C68.3648 55.4804 63.6628 54.7829 59.5896 52.6058C57.894 51.6995 56.351 50.5601 55 49.2309V67.0781Z" fill="#0262A2"/>
<path d="M35 6.10352e-05C44.3888 6.10352e-05 52 7.61122 52 17.0001V65.0001H35V6.10352e-05Z" fill="#222222"/>
</svg>
